<?xml version="1.0" standalone="no"?>
<!DOCTYPE svg PUBLIC "-//W3C//DTD SVG 20010904//EN"
 "http://www.w3.org/TR/2001/REC-SVG-20010904/DTD/svg10.dtd">
<svg version="1.0" xmlns="http://www.w3.org/2000/svg"
 width="1259.000000pt" height="1280.000000pt" viewBox="0 0 1259.000000 1280.000000"
 preserveAspectRatio="xMidYMid meet">
<metadata>
Created by potrace 1.15, written by Peter Selinger 2001-2017
</metadata>
<g transform="translate(0.000000,1280.000000) scale(0.100000,-0.100000)"
fill="#000000" stroke="none">
<path d="M5470 12794 c-614 -14 -1119 -32 -1525 -54 -2058 -111 -3546 -360
-3865 -647 -85 -76 -80 -38 -80 -614 l0 -512 24 -41 c13 -23 47 -58 74 -79 50
-38 195 -109 290 -143 46 -16 53 -22 62 -54 5 -19 63 -237 129 -485 65 -247
210 -792 321 -1210 111 -418 271 -1019 355 -1335 84 -316 234 -881 333 -1255
99 -374 257 -968 351 -1320 93 -352 262 -986 374 -1410 328 -1235 565 -2134
582 -2215 93 -423 600 -825 1370 -1087 463 -158 954 -254 1580 -310 273 -24
973 -24 1250 0 851 75 1517 241 2065 513 522 260 828 579 890 927 6 34 92 415
191 847 258 1125 312 1358 390 1698 38 166 101 439 139 607 39 168 102 442
140 610 39 168 101 441 139 608 187 812 254 1103 281 1222 17 72 59 256 95
410 35 154 96 420 135 590 40 171 82 357 95 415 13 58 55 242 94 410 116 504
216 941 318 1387 l96 422 81 32 c184 72 301 152 332 225 21 51 21 1032 -1
1073 -165 320 -1673 597 -3930 721 -223 12 -577 27 -970 41 -288 10 -1925 19
-2205 13z m2110 -274 c1931 -53 3346 -185 3973 -371 171 -51 286 -115 300
-168 33 -127 -326 -247 -1053 -351 -1626 -233 -4766 -305 -7200 -164 -1583 91
-2638 254 -2828 437 -293 283 1476 543 4198 616 426 12 2204 12 2610 1z"/>
</g>
</svg>
